<svg width="95" height="95" viewBox="0 0 95 95" fill="none" xmlns="http://www.w3.org/2000/svg">
<path d="M47.5 11.875C27.8321 11.875 11.875 27.8321 11.875 47.5C11.875 67.1679 27.8321 83.125 47.5 83.125C50.7842 83.125 53.4375 85.7783 53.4375 89.0625C53.4375 92.3464 50.7842 95 47.5 95C21.2637 95 0 73.7364 0 47.5C0 21.2636 21.2637 0 47.5 0C73.7363 0 95 21.2636 95 47.5V53.4375C95 63.2715 87.0215 71.25 77.1875 71.25C71.751 71.25 66.8711 68.8007 63.6054 64.96C59.375 68.8565 53.7158 71.25 47.5 71.25C34.3818 71.25 23.75 60.6181 23.75 47.5C23.75 34.3819 34.3818 23.75 47.5 23.75C52.6768 23.75 57.4639 25.4014 61.3603 28.2217C62.4179 27.294 63.791 26.7188 65.3125 26.7188C68.5967 26.7188 71.25 29.3721 71.25 32.6563V47.5V53.4375C71.25 56.7217 73.9033 59.375 77.1875 59.375C80.4717 59.375 83.125 56.7217 83.125 53.4375V47.5C83.125 27.8321 67.1679 11.875 47.5 11.875ZM59.375 47.5C59.375 44.3506 58.1239 41.3301 55.8969 39.1031C53.6699 36.8761 50.6495 35.625 47.5 35.625C44.3505 35.625 41.3301 36.8761 39.1031 39.1031C36.8761 41.3301 35.625 44.3506 35.625 47.5C35.625 50.6494 36.8761 53.6699 39.1031 55.8969C41.3301 58.1239 44.3505 59.375 47.5 59.375C50.6495 59.375 53.6699 58.1239 55.8969 55.8969C58.1239 53.6699 59.375 50.6494 59.375 47.5Z" fill="#D19F68"/>
</svg>
