<svg width="95" height="95" viewBox="0 0 95 95" fill="none" xmlns="http://www.w3.org/2000/svg">
<path d="M80.7712 13.8047C71.8862 4.89843 60.0536 0 47.4788 0C21.5234 0 0.402902 21.1205 0.402902 47.0759C0.402902 55.3671 2.56585 63.4677 6.67969 70.6139L0 95L24.9587 88.4476C31.8292 92.2009 39.5692 94.173 47.4576 94.173H47.4788C73.4129 94.173 95 73.0524 95 47.0971C95 34.5223 89.6562 22.711 80.7712 13.8047ZM47.4788 86.2422C40.4386 86.2422 33.5469 84.3549 27.5458 80.7924L26.125 79.9442L11.3237 83.8248L15.2679 69.3839L14.3348 67.8996C10.4118 61.6652 8.35491 54.4766 8.35491 47.0759C8.35491 25.51 25.9129 7.95201 47.5 7.95201C57.9542 7.95201 67.7723 12.0234 75.1518 19.4241C82.5312 26.8248 87.0692 36.6429 87.048 47.0971C87.048 68.6842 69.0446 86.2422 47.4788 86.2422ZM68.9386 56.9364C67.7723 56.3426 61.9833 53.5011 60.9018 53.1194C59.8203 52.7165 59.0357 52.5257 58.2511 53.7132C57.4665 54.9007 55.2188 57.5301 54.519 58.3359C53.8404 59.1205 53.1406 59.2266 51.9743 58.6329C45.0614 55.1763 40.5234 52.462 35.9643 44.6373C34.7556 42.5591 37.173 42.7076 39.4208 38.2121C39.8025 37.4275 39.6116 36.7488 39.3147 36.1552C39.0179 35.5614 36.6641 29.7723 35.6886 27.4186C34.7344 25.1283 33.7589 25.4465 33.0379 25.404C32.3594 25.3616 31.5748 25.3616 30.7902 25.3616C30.0056 25.3616 28.7333 25.6585 27.6518 26.8248C26.5703 28.0123 23.5379 30.8538 23.5379 36.6429C23.5379 42.4319 27.7578 48.0301 28.3304 48.8147C28.9241 49.5993 36.6217 61.4743 48.433 66.5849C55.8973 69.808 58.8237 70.0838 62.5558 69.5323C64.8248 69.1931 69.5112 66.6908 70.4866 63.9341C71.4621 61.1774 71.4621 58.8237 71.1652 58.3359C70.8895 57.8058 70.1049 57.5089 68.9386 56.9364Z" fill="#D19F68"/>
</svg>
