<svg width="95" height="95" viewBox="0 0 95 95" fill="none" xmlns="http://www.w3.org/2000/svg">
<path d="M52.6683 3.33947C51.7148 1.29868 49.6999 0 47.4871 0C45.2742 0 43.2773 1.29868 42.3058 3.33947L30.7379 27.8846L4.90357 31.8177C2.74471 32.1517 0.945661 33.7101 0.280012 35.8436C-0.385636 37.9772 0.154078 40.3334 1.70126 41.9103L20.4474 61.0381L16.0217 88.0692C15.6619 90.2956 16.5614 92.559 18.3425 93.8762C20.1235 95.1934 22.4803 95.3604 24.4233 94.3029L47.5051 81.5944L70.5869 94.3029C72.5299 95.3604 74.8866 95.212 76.6677 93.8762C78.4487 92.5404 79.3483 90.2956 78.9884 88.0692L74.5448 61.0381L93.2909 41.9103C94.8381 40.3334 95.3958 37.9772 94.7121 35.8436C94.0285 33.7101 92.2474 32.1517 90.0886 31.8177L64.2362 27.8846L52.6683 3.33947Z" fill="#479D9D"/>
</svg>
